<?xml version="1.0" encoding="UTF-8"?>
<svg version="1.1" xmlns="http://www.w3.org/2000/svg" width="685" height="201">
<path d="M0 0 C226.05 0 452.1 0 685 0 C685 66.33 685 132.66 685 201 C458.95 201 232.9 201 0 201 C0 134.67 0 68.34 0 0 Z " fill="#E289A6" transform="translate(0,0)"/>
<path d="M0 0 C8.08599409 5.82882004 15.11315728 13.94893398 17 24 C17.88923622 35.44344969 16.48238002 45.89980809 9 55 C0.73622496 63.3619585 -6.8948972 68.109403 -18.8125 68.1875 C-30.32767214 68.03283957 -39.14523406 64.30471784 -47.3125 55.9375 C-54.24191314 47.53224836 -56.86114474 38.08490306 -56.41796875 27.29296875 C-55.06487324 16.63259944 -49.0880961 8.00932654 -40.86328125 1.31640625 C-28.53405865 -7.3941766 -12.97514628 -7.60217822 0 0 Z " fill="#DF809E" transform="translate(180,99)"/>
<path d="M0 0 C0.10957031 0.90363281 0.21914062 1.80726562 0.33203125 2.73828125 C0.49058594 3.91777344 0.64914063 5.09726562 0.8125 6.3125 C0.96332031 7.48425781 1.11414063 8.65601563 1.26953125 9.86328125 C2.00144662 13.00621194 2.36778004 14.20907068 5 16 C8.43202271 16.28600189 10.72429875 16.09190042 14 15 C15.59513148 10.21460555 15.58109795 5.0268246 16 0 C27.22 0 38.44 0 50 0 C50.495 5.94 50.495 5.94 51 12 C54.43125 16.23125 54.43125 16.23125 58.0625 16.4375 C60.91644154 16.2286402 60.91644154 16.2286402 62.640625 14.890625 C64.6353118 12.11640543 64.52035697 9.68878917 64.6875 6.3125 C64.75324219 5.13300781 64.81898438 3.95351563 64.88671875 2.73828125 C64.92410156 1.83464844 64.96148437 0.93101563 65 0 C66.39683082 0.03347525 67.79280637 0.10331784 69.1875 0.1875 C69.96480469 0.22230469 70.74210937 0.25710937 71.54296875 0.29296875 C75.18055422 1.33971433 76.6434128 3.06055927 79 6 C79.43900428 8.92386291 79.58958897 11.24040945 79.48828125 14.14453125 C79.48120651 14.91431808 79.47413177 15.68410492 79.46684265 16.47721863 C79.43896925 18.92332303 79.37625137 21.36709384 79.3125 23.8125 C79.28740768 25.47587827 79.26459613 27.13929262 79.24414062 28.80273438 C79.18916671 32.86938157 79.10294927 36.93429589 79 41 C77.35 40.34 75.7 39.68 74 39 C74 33.39 74 27.78 74 22 C68.39 22 62.78 22 57 22 C57 26.29 57 30.58 57 35 C56.01 35 55.02 35 54 35 C54 30.71 54 26.42 54 22 C47.4 22 40.8 22 34 22 C34.04640625 23.48113281 34.0928125 24.96226563 34.140625 26.48828125 C34.17813971 28.42966737 34.21454019 30.37107526 34.25 32.3125 C34.30027344 33.77719727 34.30027344 33.77719727 34.3515625 35.27148438 C34.36445313 36.20927734 34.37734375 37.14707031 34.390625 38.11328125 C34.41157227 38.97735596 34.43251953 39.84143066 34.45410156 40.73168945 C34 43 34 43 32.24609375 44.78710938 C29.78709576 46.11496829 28.43979879 46.3522814 25.671875 46.29296875 C24.9509668 46.28547607 24.23005859 46.2779834 23.48730469 46.27026367 C22.58399414 46.24295166 21.68068359 46.21563965 20.75 46.1875 C16.41875 46.0946875 16.41875 46.0946875 12 46 C12 52.93 12 59.86 12 67 C13.32 67 14.64 67 16 67 C15.67 67.99 15.34 68.98 15 70 C14.01 70 13.02 70 12 70 C12 77.26 12 84.52 12 92 C13.65 92 15.3 92 17 92 C17.33 93.65 17.66 95.3 18 97 C14.12525543 97.11668214 10.25096604 97.18741231 6.375 97.25 C5.28058594 97.28351563 4.18617187 97.31703125 3.05859375 97.3515625 C-3.25899979 97.42813939 -7.25623595 97.37138667 -12 93 C-13.56995489 89.86009021 -13.17402994 86.49836065 -13.19287109 83.04956055 C-13.20104858 82.22824646 -13.20922607 81.40693237 -13.21765137 80.56072998 C-13.24251384 77.83606703 -13.25902326 75.11145619 -13.2734375 72.38671875 C-13.27876118 71.45702585 -13.28408485 70.52733295 -13.28956985 69.56946754 C-13.31630476 64.64894052 -13.33567883 59.7284389 -13.35009766 54.80786133 C-13.36674922 49.72324465 -13.41153016 44.63927567 -13.4624691 39.55490398 C-13.49611018 35.64725492 -13.50767161 31.73976021 -13.51332474 27.83197975 C-13.52004559 25.95766053 -13.53528928 24.08335176 -13.55921555 22.2091732 C-13.59080427 19.58511811 -13.59091377 16.96281803 -13.58349609 14.33862305 C-13.59990143 13.56492874 -13.61630676 12.79123444 -13.63320923 11.99409485 C-13.58704145 8.00259374 -13.16371914 6.20621388 -10.65103149 3.04133606 C-7.00334784 0.23256212 -4.48160893 -0.12112457 0 0 Z " fill="#FDFAFB" transform="translate(103,52)"/>
<path d="M0 0 C1.04220703 -0.01611328 2.08441406 -0.03222656 3.15820312 -0.04882812 C9.86763957 -0.05303995 17.44551122 0.05122882 22.77246094 4.69384766 C30.37963458 13.44621675 29.36949835 23.75220589 29.375 34.75 C29.38724609 36.03455078 29.39949219 37.31910156 29.41210938 38.64257812 C29.42659603 48.01544576 29.24639996 55.69559719 23.1875 63.3125 C16.56078191 69.59044345 9.55758251 69.67637561 0.875 69.6875 C-0.11951172 69.71199219 -1.11402344 69.73648438 -2.13867188 69.76171875 C-9.27243102 69.78982286 -15.93831089 68.84695252 -21.39941406 63.86474609 C-28.70633995 55.46680054 -28.04668826 45.67559689 -28.10766602 35.08911133 C-28.1191783 33.70163773 -28.13961881 32.31420817 -28.16918945 30.92700195 C-28.35876131 22.00017955 -28.4930859 12.87925249 -22.43530273 5.67456055 C-15.88150311 -0.2852843 -8.33309533 -0.02548347 0 0 Z " fill="#FEFDFD" transform="translate(483.8125,76.6875)"/>
<path d="M0 0 C0.98097656 -0.01160156 1.96195312 -0.02320312 2.97265625 -0.03515625 C9.52006766 -0.00900148 16.85893468 0.28880101 22.08764648 4.72070312 C29.55788934 13.18400594 28.70362504 24.01672812 28.75 34.625 C28.770625 35.78902344 28.79125 36.95304687 28.8125 38.15234375 C28.85004517 46.5343034 28.45847785 55.71182718 23.4375 62.8125 C16.44554376 68.91186608 8.44408479 70.02563278 -0.5625 69.875 C-1.49126953 69.89046875 -2.42003906 69.9059375 -3.37695312 69.921875 C-10.2578771 69.88324525 -16.83791411 68.70866787 -22.08984375 63.92773438 C-29.35969089 55.55160615 -28.70575076 46.31450615 -28.75 35.75 C-28.770625 34.54214844 -28.79125 33.33429688 -28.8125 32.08984375 C-28.85008598 23.36050021 -28.65254542 13.21619391 -23.375 5.8125 C-16.60656551 0.07404467 -8.54021692 -0.10100125 0 0 Z " fill="#FEFDFD" transform="translate(307.5,76.625)"/>
<path d="M0 0 C4.29 0 8.58 0 13 0 C13 19.14 13 38.28 13 58 C30.79761912 58.19469503 30.79761912 58.19469503 38 55 C39.2546715 52.49065701 39.15873558 50.71622645 39.20532227 47.90771484 C39.22526749 46.84676605 39.24521271 45.78581726 39.26576233 44.69271851 C39.28247482 43.54373077 39.29918732 42.39474304 39.31640625 41.2109375 C39.33718735 40.03737701 39.35796844 38.86381653 39.37937927 37.6546936 C39.44491983 33.89485696 39.50378076 30.13494878 39.5625 26.375 C39.60568092 23.83072168 39.64929507 21.28645067 39.69335938 18.7421875 C39.80060586 12.49486553 39.90186061 6.2474714 40 0 C44.29 0 48.58 0 53 0 C53 21.78 53 43.56 53 66 C50.69 66 48.38 66 46 66 C45.34 64.02 44.68 62.04 44 60 C43.443125 60.32613281 42.88625 60.65226562 42.3125 60.98828125 C34.11880205 65.68028058 27.86496281 68.26295472 18.4375 68.4375 C17.71691406 68.45981689 16.99632812 68.48213379 16.25390625 68.50512695 C10.74671248 68.48180207 7.44624877 67.30308469 3 64 C-1.20538644 58.19695803 -0.37861613 51.57283807 -0.29296875 44.7265625 C-0.28872391 43.44768158 -0.28447906 42.16880066 -0.28010559 40.85116577 C-0.2661897 37.46765298 -0.23928324 34.08475773 -0.20599365 30.70141602 C-0.17518588 27.24240426 -0.1615775 23.78332846 -0.14648438 20.32421875 C-0.11344743 13.54928775 -0.06168046 6.77472833 0 0 Z " fill="#FEFEFE" transform="translate(533,78)"/>
<path d="M0 0 C4.29 0 8.58 0 13 0 C17.14161216 8.03012579 20.74336031 16.24171442 24.25 24.5625 C25.3148651 27.08586354 26.38312084 29.60770896 27.453125 32.12890625 C27.91879883 33.23306885 28.38447266 34.33723145 28.86425781 35.47485352 C29.77037659 37.88865356 29.77037659 37.88865356 31 39 C31.71917603 37.28115601 31.71917603 37.28115601 32.45288086 35.52758789 C34.22644733 31.29054535 36.00323017 27.05485804 37.78100586 22.81958008 C38.55109554 20.98368759 39.32030353 19.14742502 40.08862305 17.31079102 C41.19089812 14.67627543 42.29630078 12.04309179 43.40234375 9.41015625 C43.74716293 8.58411392 44.09198212 7.75807159 44.44725037 6.90699768 C46.88612829 1.11387171 46.88612829 1.11387171 48 0 C50.35313555 -0.07271741 52.70833668 -0.08370868 55.0625 -0.0625 C56.35285156 -0.05347656 57.64320313 -0.04445312 58.97265625 -0.03515625 C59.97167969 -0.02355469 60.97070312 -0.01195312 62 0 C59.7938886 5.62788818 57.28555015 11.1134581 54.80578613 16.62475586 C53.92508994 18.59019539 53.05297287 20.55925868 52.18261719 22.52929688 C49.66195009 28.21576914 47.14057873 33.86595907 44.17578125 39.33984375 C36.6306344 53.6014034 36.72573011 67.15817115 37 83 C32.71 83 28.42 83 24 83 C24.10183594 81.28941406 24.20367187 79.57882813 24.30859375 77.81640625 C24.90197264 57.20268589 19.13054296 42.69333975 9.83496094 24.61083984 C7.40032783 19.86100433 5.21138847 15.00958289 3.0625 10.125 C2.57801392 9.06502808 2.57801392 9.06502808 2.08374023 7.98364258 C0.79846985 5.1277696 0 3.17217062 0 0 Z " fill="#FEFCFD" transform="translate(391,61)"/>
<path d="M0 0 C14.85 0 29.7 0 45 0 C44.67 3.63 44.34 7.26 44 11 C33.77 11 23.54 11 13 11 C13 19.91 13 28.82 13 38 C21.91 38 30.82 38 40 38 C40 41.63 40 45.26 40 49 C31.09 49 22.18 49 13 49 C13 60.55 13 72.1 13 84 C8.71 84 4.42 84 0 84 C0 56.28 0 28.56 0 0 Z " fill="#FEFBFC" transform="translate(227,61)"/>
<path d="M0 0 C8.08599409 5.82882004 15.11315728 13.94893398 17 24 C17.88923622 35.44344969 16.48238002 45.89980809 9 55 C0.73622496 63.3619585 -6.8948972 68.109403 -18.8125 68.1875 C-30.32767214 68.03283957 -39.14523406 64.30471784 -47.3125 55.9375 C-54.24191314 47.53224836 -56.86114474 38.08490306 -56.41796875 27.29296875 C-55.06487324 16.63259944 -49.0880961 8.00932654 -40.86328125 1.31640625 C-28.53405865 -7.3941766 -12.97514628 -7.60217822 0 0 Z M-42.59765625 14.875 C-46.28715919 20.46577883 -47.55858934 24.72266375 -47.5 31.3125 C-47.49355469 32.0657959 -47.48710937 32.8190918 -47.48046875 33.59521484 C-47.23734256 40.9993669 -45.2350331 45.62546855 -40.09765625 50.984375 C-32.20840422 58.31335385 -25.55300942 59.75185822 -15.140625 59.40234375 C-7.3509043 58.84169345 -2.89814846 55.17917533 2.375 49.6875 C7.33290944 43.71233026 9.63139828 38.16130352 9.26953125 30.34765625 C8.1627602 20.70752003 4.42140908 14.33398207 -3 8 C-16.92573025 -1.14004419 -32.14637354 2.11007456 -42.59765625 14.875 Z " fill="#FEFBFC" transform="translate(180,99)"/>
<path d="M0 0 C1.25361328 0.00644531 2.50722656 0.01289062 3.79882812 0.01953125 C5.76432617 0.04466797 5.76432617 0.04466797 7.76953125 0.0703125 C9.10481112 0.08034611 10.44009814 0.0894713 11.77539062 0.09765625 C15.0444514 0.12125958 18.31315153 0.15418656 21.58203125 0.1953125 C21.65792161 6.70972251 21.71056327 13.2240191 21.74682617 19.73876953 C21.76193878 21.95626078 21.78242951 24.17372203 21.80834961 26.39111328 C21.84462418 29.57331739 21.86173264 32.75512732 21.875 35.9375 C21.89048386 36.93337128 21.90596771 37.92924255 21.92192078 38.95529175 C21.92214737 39.87609528 21.92237396 40.7968988 21.92260742 41.74560547 C21.92926926 42.5583493 21.93593109 43.37109314 21.9427948 44.20846558 C21.76421684 45.1919548 21.76421684 45.1919548 21.58203125 46.1953125 C17.99534812 48.58643459 16.41806556 48.42912277 12.1640625 48.390625 C10.91044922 48.38417969 9.65683594 48.37773437 8.36523438 48.37109375 C7.05490234 48.35433594 5.74457031 48.33757812 4.39453125 48.3203125 C3.05925138 48.31027889 1.72396436 48.3011537 0.38867188 48.29296875 C-2.8803889 48.26936542 -6.14908903 48.23643844 -9.41796875 48.1953125 C-9.49385911 41.68090249 -9.54650077 35.1666059 -9.58276367 28.65185547 C-9.59787628 26.43436422 -9.61836701 24.21690297 -9.64428711 21.99951172 C-9.68056168 18.81730761 -9.69767014 15.63549768 -9.7109375 12.453125 C-9.72642136 11.45725372 -9.74190521 10.46138245 -9.75785828 9.43533325 C-9.75808487 8.51452972 -9.75831146 7.5937262 -9.75854492 6.64501953 C-9.76520676 5.8322757 -9.77186859 5.01953186 -9.7787323 4.18215942 C-9.65968033 3.52649994 -9.54062836 2.87084045 -9.41796875 2.1953125 C-5.83128562 -0.19580959 -4.25400306 -0.03849777 0 0 Z " fill="#E798B3" transform="translate(478.41796875,86.8046875)"/>
<path d="M0 0 C1.25361328 0.00644531 2.50722656 0.01289062 3.79882812 0.01953125 C5.76432617 0.04466797 5.76432617 0.04466797 7.76953125 0.0703125 C9.10481112 0.08034611 10.44009814 0.0894713 11.77539062 0.09765625 C15.0444514 0.12125958 18.31315153 0.15418656 21.58203125 0.1953125 C21.65792161 6.70972251 21.71056327 13.2240191 21.74682617 19.73876953 C21.76193878 21.95626078 21.78242951 24.17372203 21.80834961 26.39111328 C21.84462418 29.57331739 21.86173264 32.75512732 21.875 35.9375 C21.89048386 36.93337128 21.90596771 37.92924255 21.92192078 38.95529175 C21.92214737 39.87609528 21.92237396 40.7968988 21.92260742 41.74560547 C21.92926926 42.5583493 21.93593109 43.37109314 21.9427948 44.20846558 C21.76421684 45.1919548 21.76421684 45.1919548 21.58203125 46.1953125 C17.99534812 48.58643459 16.41806556 48.42912277 12.1640625 48.390625 C10.91044922 48.38417969 9.65683594 48.37773437 8.36523438 48.37109375 C7.05490234 48.35433594 5.74457031 48.33757812 4.39453125 48.3203125 C3.05925138 48.31027889 1.72396436 48.3011537 0.38867188 48.29296875 C-2.8803889 48.26936542 -6.14908903 48.23643844 -9.41796875 48.1953125 C-9.49385911 41.68090249 -9.54650077 35.1666059 -9.58276367 28.65185547 C-9.59787628 26.43436422 -9.61836701 24.21690297 -9.64428711 21.99951172 C-9.68056168 18.81730761 -9.69767014 15.63549768 -9.7109375 12.453125 C-9.72642136 11.45725372 -9.74190521 10.46138245 -9.75785828 9.43533325 C-9.75808487 8.51452972 -9.75831146 7.5937262 -9.75854492 6.64501953 C-9.76520676 5.8322757 -9.77186859 5.01953186 -9.7787323 4.18215942 C-9.65968033 3.52649994 -9.54062836 2.87084045 -9.41796875 2.1953125 C-5.83128562 -0.19580959 -4.25400306 -0.03849777 0 0 Z " fill="#E28BA7" transform="translate(301.41796875,86.8046875)"/>
<path d="M0 0 C0.33 4.29 0.66 8.58 1 13 C-6.92 16.96 -6.92 16.96 -15 21 C-15.33 36.84 -15.66 52.68 -16 69 C-20.62 69 -25.24 69 -30 69 C-30 46.89 -30 24.78 -30 2 C-27.69 2 -25.38 2 -23 2 C-21.35 4.97 -19.7 7.94 -18 11 C-17.18015625 10.37351562 -16.3603125 9.74703125 -15.515625 9.1015625 C-14.42721304 8.27587067 -13.33866413 7.45035932 -12.25 6.625 C-11.71117187 6.2125 -11.17234375 5.8 -10.6171875 5.375 C-3.50831653 0 -3.50831653 0 0 0 Z " fill="#FDF9FA" transform="translate(386,76)"/>
<path d="M0 0 C3.63 0 7.26 0 11 0 C11 3.96 11 7.92 11 12 C14.96 12 18.92 12 23 12 C23 15.63 23 19.26 23 23 C19.04 23 15.08 23 11 23 C11 26.96 11 30.92 11 35 C7.37 35 3.74 35 0 35 C0 31.04 0 27.08 0 23 C-3.96 23 -7.92 23 -12 23 C-12 19.37 -12 15.74 -12 12 C-8.04 12 -4.08 12 0 12 C0 8.04 0 4.08 0 0 Z " fill="#FFFFFF" transform="translate(155,113)"/>
<path d="M0 0 C6.27 0 12.54 0 19 0 C19 6.6 19 13.2 19 20 C12.73 20 6.46 20 0 20 C0 13.4 0 6.8 0 0 Z " fill="#DC7695" transform="translate(115,75)"/>
<path d="M0 0 C5.61 0 11.22 0 17 0 C17 7.26 17 14.52 17 22 C3.50648211 22.37138123 3.50648211 22.37138123 1.30859375 20.75976562 C-0.35074891 18.52832124 -0.34852104 17.30987831 -0.29296875 14.55078125 C-0.28330078 13.70322266 -0.27363281 12.85566406 -0.26367188 11.98242188 C-0.23853516 11.10134766 -0.21339844 10.22027344 -0.1875 9.3125 C-0.17396484 8.41982422 -0.16042969 7.52714844 -0.14648438 6.60742188 C-0.11114643 4.40469017 -0.05733969 2.2022688 0 0 Z " fill="#DD7998" transform="translate(95,122)"/>
<path d="M0 0 C5.61 0 11.22 0 17 0 C17 6.93 17 13.86 17 21 C11.39 21 5.78 21 0 21 C0 14.07 0 7.14 0 0 Z " fill="#DC7695" transform="translate(95,98)"/>
<path d="M0 0 C5.61 0 11.22 0 17 0 C17 6.6 17 13.2 17 20 C11.39 20 5.78 20 0 20 C0 13.4 0 6.8 0 0 Z " fill="#DB7494" transform="translate(95,75)"/>
<path d="M0 0 C2.5625 0.25 2.5625 0.25 5 1 C6.82671197 4.65342394 6.18470722 8.97839159 6.1875 13 C6.19974609 13.928125 6.21199219 14.85625 6.22460938 15.8125 C6.22750977 17.1428125 6.22750977 17.1428125 6.23046875 18.5 C6.23457764 19.3146875 6.23868652 20.129375 6.24291992 20.96875 C6 23 6 23 4 25 C1.4375 25.1875 1.4375 25.1875 -1 25 C-3.41816166 22.58183834 -2.18547019 16.31222181 -2.1875 13.0625 C-2.19974609 12.03447266 -2.21199219 11.00644531 -2.22460938 9.94726562 C-2.22654297 8.96564453 -2.22847656 7.98402344 -2.23046875 6.97265625 C-2.23457764 6.06781494 -2.23868652 5.16297363 -2.24291992 4.23071289 C-2 2 -2 2 0 0 Z " fill="#FDF8F9" transform="translate(159,40)"/>
<path d="M0 0 C4.55555556 0.55555556 4.55555556 0.55555556 6 2 C6.25098924 5.47208807 6.18522096 8.9574062 6.1875 12.4375 C6.19974609 13.41783203 6.21199219 14.39816406 6.22460938 15.40820312 C6.22750977 16.81295898 6.22750977 16.81295898 6.23046875 18.24609375 C6.23457764 19.10904053 6.23868652 19.9719873 6.24291992 20.86108398 C6 23 6 23 4 25 C-0.55555556 24.44444444 -0.55555556 24.44444444 -2 23 C-2.25098924 19.52791193 -2.18522096 16.0425938 -2.1875 12.5625 C-2.19974609 11.58216797 -2.21199219 10.60183594 -2.22460938 9.59179688 C-2.22750977 8.18704102 -2.22750977 8.18704102 -2.23046875 6.75390625 C-2.23457764 5.89095947 -2.23868652 5.0280127 -2.24291992 4.13891602 C-2 2 -2 2 0 0 Z " fill="#FEFBFC" transform="translate(109,40)"/>
</svg>
