<?xml version="1.0" encoding="UTF-8"?>
<svg version="1.1" xmlns="http://www.w3.org/2000/svg" width="126" height="148">
<path d="M0 0 C41.58 0 83.16 0 126 0 C126 48.84 126 97.68 126 148 C84.42 148 42.84 148 0 148 C0 99.16 0 50.32 0 0 Z " fill="#DD7A99" transform="translate(0,0)"/>
<path d="M0 0 C10.5644353 6.04547387 16.59210768 13.46382303 20.4375 25 C21.31543867 36.74422878 20.17491439 47.58963115 12.4375 57 C4.17372496 65.3619585 -3.4573972 70.109403 -15.375 70.1875 C-26.89017214 70.03283957 -35.70773406 66.30471784 -43.875 57.9375 C-50.8751405 49.44645736 -53.37157724 40.04028489 -52.9140625 29.15625 C-51.7732384 18.91418475 -45.74727077 9.98534616 -37.796875 3.57421875 C-26.43075588 -4.43372881 -12.64243633 -6.30913501 0 0 Z " fill="#DF809E" transform="translate(94.5625,66)"/>
<path d="M0 0 C1.134375 0.020625 2.26875 0.04125 3.4375 0.0625 C3.54707031 0.96613281 3.65664063 1.86976562 3.76953125 2.80078125 C3.92808594 3.98027344 4.08664063 5.15976562 4.25 6.375 C4.40082031 7.54675781 4.55164062 8.71851563 4.70703125 9.92578125 C5.43894662 13.06871194 5.80528004 14.27157068 8.4375 16.0625 C11.86952271 16.34850189 14.16179875 16.15440042 17.4375 15.0625 C19.03263148 10.27710555 19.01859795 5.0893246 19.4375 0.0625 C30.6575 0.0625 41.8775 0.0625 53.4375 0.0625 C53.9325 6.0025 53.9325 6.0025 54.4375 12.0625 C56.98156444 15.15967998 56.98156444 15.15967998 59.41015625 15.4609375 C61.42352922 15.43835762 63.43307028 15.25339807 65.4375 15.0625 C67.70704631 11.65818053 67.80299949 9.89725798 68.0625 5.875 C68.13726562 4.78832031 68.21203125 3.70164062 68.2890625 2.58203125 C68.36253906 1.33486328 68.36253906 1.33486328 68.4375 0.0625 C69.83433082 0.09597525 71.23030637 0.16581784 72.625 0.25 C73.40230469 0.28480469 74.17960937 0.31960937 74.98046875 0.35546875 C78.61805422 1.40221433 80.0809128 3.12305927 82.4375 6.0625 C82.87650428 8.98636291 83.02708897 11.30290945 82.92578125 14.20703125 C82.91870651 14.97681808 82.91163177 15.74660492 82.90434265 16.53971863 C82.87646925 18.98582303 82.81375137 21.42959384 82.75 23.875 C82.72490768 25.53837827 82.70209613 27.20179262 82.68164062 28.86523438 C82.62666671 32.93188157 82.54044927 36.99679589 82.4375 41.0625 C80.7875 40.4025 79.1375 39.7425 77.4375 39.0625 C77.4375 33.7825 77.4375 28.5025 77.4375 23.0625 C71.8275 23.0625 66.2175 23.0625 60.4375 23.0625 C60.4375 27.3525 60.4375 31.6425 60.4375 36.0625 C59.4475 36.0625 58.4575 36.0625 57.4375 36.0625 C57.4375 31.4425 57.4375 26.8225 57.4375 22.0625 C50.8375 22.0625 44.2375 22.0625 37.4375 22.0625 C37.48390625 23.54363281 37.5303125 25.02476563 37.578125 26.55078125 C37.61563971 28.49216737 37.65204019 30.43357526 37.6875 32.375 C37.73777344 33.83969727 37.73777344 33.83969727 37.7890625 35.33398438 C37.80195312 36.27177734 37.81484375 37.20957031 37.828125 38.17578125 C37.84907227 39.03985596 37.87001953 39.90393066 37.89160156 40.79418945 C37.4375 43.0625 37.4375 43.0625 35.68359375 44.84960938 C33.22459576 46.17746829 31.87729879 46.4147814 29.109375 46.35546875 C28.3884668 46.34797607 27.66755859 46.3404834 26.92480469 46.33276367 C26.02149414 46.30545166 25.11818359 46.27813965 24.1875 46.25 C19.85625 46.1571875 19.85625 46.1571875 15.4375 46.0625 C15.4375 52.9925 15.4375 59.9225 15.4375 67.0625 C16.7575 67.0625 18.0775 67.0625 19.4375 67.0625 C19.4375 68.0525 19.4375 69.0425 19.4375 70.0625 C18.1175 70.0625 16.7975 70.0625 15.4375 70.0625 C15.4375 77.3225 15.4375 84.5825 15.4375 92.0625 C17.0875 92.0625 18.7375 92.0625 20.4375 92.0625 C21.0975 93.7125 21.7575 95.3625 22.4375 97.0625 C18.20856532 97.17883933 13.98004326 97.24979952 9.75 97.3125 C8.55181641 97.34601563 7.35363281 97.37953125 6.11914062 97.4140625 C4.96220703 97.42695312 3.80527344 97.43984375 2.61328125 97.453125 C1.55020752 97.47407227 0.48713379 97.49501953 -0.6081543 97.51660156 C-4.28340694 96.95169206 -5.91521234 95.61743697 -8.5625 93.0625 C-10.13245489 89.92259021 -9.73652994 86.56086065 -9.75537109 83.11206055 C-9.76354858 82.29074646 -9.77172607 81.46943237 -9.78015137 80.62322998 C-9.80501384 77.89856703 -9.82152326 75.17395619 -9.8359375 72.44921875 C-9.84126118 71.51952585 -9.84658485 70.58983295 -9.85206985 69.63196754 C-9.87880476 64.71144052 -9.89817883 59.7909389 -9.91259766 54.87036133 C-9.92924922 49.78574465 -9.97403016 44.70177567 -10.0249691 39.61740398 C-10.05861018 35.70975492 -10.07017161 31.80226021 -10.07582474 27.89447975 C-10.08254559 26.02016053 -10.09778928 24.14585176 -10.12171555 22.2716732 C-10.15330427 19.64761811 -10.15341377 17.02531803 -10.14599609 14.40112305 C-10.16240143 13.62742874 -10.17880676 12.85373444 -10.19570923 12.05659485 C-10.14851479 7.97633296 -9.7445954 6.28027121 -7.08853149 3.10383606 C-6.2549411 2.43019516 -5.42135071 1.75655426 -4.5625 1.0625 C-3.5625 0.0625 -3.5625 0.0625 0 0 Z " fill="#FDFAFB" transform="translate(17.5625,20.9375)"/>
<path d="M0 0 C10.5644353 6.04547387 16.59210768 13.46382303 20.4375 25 C21.31543867 36.74422878 20.17491439 47.58963115 12.4375 57 C4.17372496 65.3619585 -3.4573972 70.109403 -15.375 70.1875 C-26.89017214 70.03283957 -35.70773406 66.30471784 -43.875 57.9375 C-50.8751405 49.44645736 -53.37157724 40.04028489 -52.9140625 29.15625 C-51.7732384 18.91418475 -45.74727077 9.98534616 -37.796875 3.57421875 C-26.43075588 -4.43372881 -12.64243633 -6.30913501 0 0 Z M-39.16015625 16.875 C-42.84965919 22.46577883 -44.12108934 26.72266375 -44.0625 33.3125 C-44.05605469 34.0657959 -44.04960938 34.8190918 -44.04296875 35.59521484 C-43.79984256 42.9993669 -41.7975331 47.62546855 -36.66015625 52.984375 C-28.77090422 60.31335385 -22.11550942 61.75185822 -11.703125 61.40234375 C-3.9134043 60.84169345 0.53935154 57.17917533 5.8125 51.6875 C10.77040944 45.71233026 13.06889828 40.16130352 12.70703125 32.34765625 C11.6002602 22.70752003 7.85890908 16.33398207 0.4375 10 C-13.48823025 0.85995581 -28.70887354 4.11007456 -39.16015625 16.875 Z " fill="#FDFAFB" transform="translate(94.5625,66)"/>
<path d="M0 0 C3.63 0 7.26 0 11 0 C11 3.96 11 7.92 11 12 C14.96 12 18.92 12 23 12 C23 15.63 23 19.26 23 23 C19.04 23 15.08 23 11 23 C11 26.96 11 30.92 11 35 C7.37 35 3.74 35 0 35 C0 31.04 0 27.08 0 23 C-3.96 23 -7.92 23 -12 23 C-12 19.37 -12 15.74 -12 12 C-8.04 12 -4.08 12 0 12 C0 8.04 0 4.08 0 0 Z " fill="#FFFFFF" transform="translate(73,82)"/>
<path d="M0 0 C6.27 0 12.54 0 19 0 C19 6.6 19 13.2 19 20 C12.73 20 6.46 20 0 20 C0 13.4 0 6.8 0 0 Z " fill="#DC7695" transform="translate(33,44)"/>
<path d="M0 0 C5.61 0 11.22 0 17 0 C17 7.26 17 14.52 17 22 C3.50648211 22.37138123 3.50648211 22.37138123 1.30859375 20.75976562 C-0.35074891 18.52832124 -0.34852104 17.30987831 -0.29296875 14.55078125 C-0.28330078 13.70322266 -0.27363281 12.85566406 -0.26367188 11.98242188 C-0.23853516 11.10134766 -0.21339844 10.22027344 -0.1875 9.3125 C-0.17396484 8.41982422 -0.16042969 7.52714844 -0.14648438 6.60742188 C-0.11114643 4.40469017 -0.05733969 2.2022688 0 0 Z " fill="#DD7998" transform="translate(13,91)"/>
<path d="M0 0 C5.61 0 11.22 0 17 0 C17 6.93 17 13.86 17 21 C11.39 21 5.78 21 0 21 C0 14.07 0 7.14 0 0 Z " fill="#DC7695" transform="translate(13,67)"/>
<path d="M0 0 C5.61 0 11.22 0 17 0 C17 6.6 17 13.2 17 20 C11.39 20 5.78 20 0 20 C0 13.4 0 6.8 0 0 Z " fill="#DB7494" transform="translate(13,44)"/>
<path d="M0 0 C4.55555556 0.55555556 4.55555556 0.55555556 6 2 C6.25098924 5.47208807 6.18522096 8.9574062 6.1875 12.4375 C6.19974609 13.41783203 6.21199219 14.39816406 6.22460938 15.40820312 C6.22750977 16.81295898 6.22750977 16.81295898 6.23046875 18.24609375 C6.23457764 19.10904053 6.23868652 19.9719873 6.24291992 20.86108398 C6 23 6 23 4 25 C1.4375 25.1875 1.4375 25.1875 -1 25 C-3.41816166 22.58183834 -2.18547019 16.31222181 -2.1875 13.0625 C-2.19974609 12.03447266 -2.21199219 11.00644531 -2.22460938 9.94726562 C-2.22654297 8.96564453 -2.22847656 7.98402344 -2.23046875 6.97265625 C-2.23457764 6.06781494 -2.23868652 5.16297363 -2.24291992 4.23071289 C-2 2 -2 2 0 0 Z " fill="#FDF7F9" transform="translate(77,9)"/>
<path d="M0 0 C4.55555556 0.55555556 4.55555556 0.55555556 6 2 C6.25098924 5.47208807 6.18522096 8.9574062 6.1875 12.4375 C6.19974609 13.41783203 6.21199219 14.39816406 6.22460938 15.40820312 C6.22750977 16.81295898 6.22750977 16.81295898 6.23046875 18.24609375 C6.23457764 19.10904053 6.23868652 19.9719873 6.24291992 20.86108398 C6 23 6 23 4 25 C-0.55555556 24.44444444 -0.55555556 24.44444444 -2 23 C-2.25098924 19.52791193 -2.18522096 16.0425938 -2.1875 12.5625 C-2.19974609 11.58216797 -2.21199219 10.60183594 -2.22460938 9.59179688 C-2.22750977 8.18704102 -2.22750977 8.18704102 -2.23046875 6.75390625 C-2.23457764 5.89095947 -2.23868652 5.0280127 -2.24291992 4.13891602 C-2 2 -2 2 0 0 Z " fill="#FEFBFC" transform="translate(27,9)"/>
</svg>
